<svg width="96" height="96" viewBox="0 0 96 96" fill="none" xmlns="http://www.w3.org/2000/svg">
<rect width="96" height="96" rx="8" fill="url(#paint0_linear_2_13)"/>
<path d="M27.5556 21.3333C24.1191 21.3333 21.3333 24.1191 21.3333 27.5556V32.8889C21.3333 34.3616 20.1394 35.5556 18.6667 35.5556C17.1939 35.5556 16 34.3616 16 32.8889V27.5556C16 21.1736 21.1736 16 27.5556 16H32.8889C34.3616 16 35.5556 17.1939 35.5556 18.6667C35.5556 20.1394 34.3616 21.3333 32.8889 21.3333H27.5556Z" fill="white"/>
<path d="M68.4445 21.3333C71.8809 21.3333 74.6667 24.1191 74.6667 27.5556V32.8889C74.6667 34.3616 75.8606 35.5556 77.3333 35.5556C78.8061 35.5556 80 34.3616 80 32.8889V27.5556C80 21.1736 74.8263 16 68.4445 16H63.1111C61.6384 16 60.4445 17.1939 60.4445 18.6667C60.4445 20.1394 61.6384 21.3333 63.1111 21.3333H68.4445Z" fill="white"/>
<path d="M68.4445 74.6667C71.8809 74.6667 74.6667 71.8809 74.6667 68.4444V63.1111C74.6667 61.6384 75.8606 60.4444 77.3333 60.4444C78.8061 60.4444 80 61.6384 80 63.1111V68.4444C80 74.8263 74.8263 80 68.4445 80H63.1111C61.6384 80 60.4445 78.806 60.4445 77.3333C60.4445 75.8606 61.6384 74.6667 63.1111 74.6667H68.4445Z" fill="white"/>
<path d="M27.5556 74.6667C24.1191 74.6667 21.3333 71.8809 21.3333 68.4444V63.1111C21.3333 61.6384 20.1394 60.4444 18.6667 60.4444C17.1939 60.4444 16 61.6384 16 63.1111V68.4444C16 74.8263 21.1736 80 27.5556 80H32.8889C34.3616 80 35.5556 78.806 35.5556 77.3333C35.5556 75.8606 34.3616 74.6667 32.8889 74.6667H27.5556Z" fill="white"/>
<path d="M52.2586 45.9521L53.9425 46.9146L57.3113 44.9896L52.2586 41.9823V45.9521Z" fill="white"/>
<path d="M62.4848 39.8155L63.6879 37.6504C64.6499 35.9655 61.8838 34.0404 60.5598 33.3196C59.2358 32.5972 56.229 31.0331 55.2665 32.8384L53.5816 35.7259C51.8966 35.365 49.9716 35.1243 48.0471 35.1243C38.061 35.1238 30 40.5385 30 47.1558C30 53.772 38.061 59.1861 48.0471 59.1861C48.0471 59.1861 48.0471 59.1861 48.168 59.1861C48.2883 60.6299 46.6039 63.0361 44.1971 64.2387C53.7029 64.2387 58.0337 57.1402 58.0337 57.1402C62.8457 54.9746 65.9739 51.3651 65.9739 47.1541C66.2145 44.388 64.7708 41.8614 62.4848 39.8155ZM38.3011 50.5245C37.3386 50.5245 36.6167 49.8016 36.6167 48.8391C36.6167 47.8766 37.3386 47.1547 38.3011 47.1547C39.2636 47.1547 39.9855 47.8766 39.9855 48.8391C39.9855 49.8016 39.1444 50.5245 38.3011 50.5245ZM42.7528 50.5245C41.7902 50.5245 41.0684 49.8016 41.0684 48.8391C41.0684 47.8766 41.7902 47.1547 42.7528 47.1547C43.7153 47.1547 44.4372 47.8766 44.4372 48.8391C44.4372 49.8016 43.7153 50.5245 42.7528 50.5245ZM47.2049 50.5245C46.2424 50.5245 45.52 49.8016 45.52 48.8391C45.52 47.8766 46.2424 47.1547 47.2049 47.1547C48.1674 47.1547 48.8893 47.8766 48.8893 48.8391C48.8893 49.8016 48.1674 50.5245 47.2049 50.5245ZM57.9134 45.3505L54.4243 47.2755L51.5362 48.8391V45.5911V41.6208L56.3493 33.3191C56.5894 32.8378 58.2743 33.3191 60.0785 34.2816C61.8827 35.2441 63.0864 36.4467 62.7254 36.9285L57.9134 45.3505Z" fill="white"/>
<defs>
<linearGradient id="paint0_linear_2_13" x1="-5.32084e-07" y1="96.3257" x2="105.728" y2="82.9461" gradientUnits="userSpaceOnUse">
<stop stop-color="#023047"/>
<stop offset="1" stop-color="#219EBC"/>
</linearGradient>
</defs>
</svg>
