<svg width="334" height="96" viewBox="0 0 334 96" fill="none" xmlns="http://www.w3.org/2000/svg">
<path d="M138.1 84V79.58H137.94L135 86.76L132.06 79.58H131.9V84V91H130.36V77.04H132.52L134.98 83.2H135.1L137.56 77.04H139.64V91H138.1V84ZM153.832 78.4C153.366 78.4 153.039 78.3067 152.852 78.12C152.666 77.92 152.572 77.6733 152.572 77.38V77.06C152.572 76.7667 152.666 76.5267 152.852 76.34C153.039 76.14 153.366 76.04 153.832 76.04C154.299 76.04 154.626 76.14 154.812 76.34C154.999 76.5267 155.092 76.7667 155.092 77.06V77.38C155.092 77.6733 154.999 77.92 154.812 78.12C154.626 78.3067 154.299 78.4 153.832 78.4ZM149.312 89.64H153.032V82.04H149.312V80.68H154.632V89.64H158.112V91H149.312V89.64ZM166.924 89.64H169.944V82.04H166.924V80.68H171.544V83.28H171.644C171.858 82.4667 172.258 81.8333 172.844 81.38C173.444 80.9133 174.204 80.68 175.124 80.68H176.564V82.28H174.624C173.704 82.28 172.958 82.5467 172.384 83.08C171.824 83.6133 171.544 84.3133 171.544 85.18V89.64H175.544V91H166.924V89.64ZM189.937 91.24C189.19 91.24 188.523 91.1133 187.937 90.86C187.363 90.5933 186.877 90.2267 186.477 89.76C186.077 89.2933 185.77 88.7267 185.557 88.06C185.357 87.3933 185.257 86.6533 185.257 85.84C185.257 85.0267 185.363 84.2867 185.577 83.62C185.79 82.9533 186.097 82.3867 186.497 81.92C186.897 81.44 187.383 81.0733 187.957 80.82C188.53 80.5667 189.183 80.44 189.917 80.44C190.917 80.44 191.73 80.66 192.357 81.1C192.983 81.54 193.443 82.1133 193.737 82.82L192.457 83.5C192.27 82.9667 191.957 82.5533 191.517 82.26C191.09 81.9667 190.557 81.82 189.917 81.82C189.45 81.82 189.03 81.9 188.657 82.06C188.297 82.2067 187.99 82.42 187.737 82.7C187.483 82.98 187.29 83.3133 187.157 83.7C187.037 84.0867 186.977 84.5067 186.977 84.96V86.72C186.977 87.1733 187.037 87.5933 187.157 87.98C187.29 88.3667 187.483 88.7 187.737 88.98C187.99 89.26 188.303 89.48 188.677 89.64C189.05 89.7867 189.477 89.86 189.957 89.86C190.65 89.86 191.223 89.7 191.677 89.38C192.13 89.06 192.49 88.62 192.757 88.06L193.897 88.84C193.59 89.5333 193.11 90.1067 192.457 90.56C191.817 91.0133 190.977 91.24 189.937 91.24ZM207.769 91.24C207.049 91.24 206.395 91.1133 205.809 90.86C205.235 90.6067 204.742 90.2467 204.329 89.78C203.929 89.3 203.622 88.7333 203.409 88.08C203.195 87.4133 203.089 86.6667 203.089 85.84C203.089 85.0267 203.195 84.2867 203.409 83.62C203.622 82.9533 203.929 82.3867 204.329 81.92C204.742 81.44 205.235 81.0733 205.809 80.82C206.395 80.5667 207.049 80.44 207.769 80.44C208.489 80.44 209.135 80.5667 209.709 80.82C210.295 81.0733 210.789 81.44 211.189 81.92C211.602 82.3867 211.915 82.9533 212.129 83.62C212.342 84.2867 212.449 85.0267 212.449 85.84C212.449 86.6667 212.342 87.4133 212.129 88.08C211.915 88.7333 211.602 89.3 211.189 89.78C210.789 90.2467 210.295 90.6067 209.709 90.86C209.135 91.1133 208.489 91.24 207.769 91.24ZM207.769 89.86C208.662 89.86 209.382 89.5933 209.929 89.06C210.475 88.5267 210.749 87.7 210.749 86.58V85.1C210.749 83.98 210.475 83.1533 209.929 82.62C209.382 82.0867 208.662 81.82 207.769 81.82C206.875 81.82 206.155 82.0867 205.609 82.62C205.062 83.1533 204.789 83.98 204.789 85.1V86.58C204.789 87.7 205.062 88.5267 205.609 89.06C206.155 89.5933 206.875 89.86 207.769 89.86ZM239.913 77.04H244.653C245.853 77.04 246.793 77.3667 247.473 78.02C248.153 78.6733 248.493 79.5467 248.493 80.64C248.493 81.48 248.286 82.14 247.873 82.62C247.473 83.1 246.953 83.44 246.313 83.64V83.7C247.1 83.8867 247.746 84.24 248.253 84.76C248.76 85.2667 249.013 86.0067 249.013 86.98C249.013 87.54 248.92 88.0667 248.733 88.56C248.546 89.0533 248.28 89.48 247.933 89.84C247.6 90.2 247.2 90.4867 246.733 90.7C246.28 90.9 245.786 91 245.253 91H239.913V77.04ZM244.753 89.54C245.526 89.54 246.133 89.3667 246.573 89.02C247.013 88.6733 247.233 88.14 247.233 87.42V86.6C247.233 85.8933 247.013 85.3667 246.573 85.02C246.133 84.66 245.526 84.48 244.753 84.48H241.593V89.54H244.753ZM244.473 83.1C245.18 83.1 245.733 82.9467 246.133 82.64C246.533 82.32 246.733 81.84 246.733 81.2V80.42C246.733 79.78 246.533 79.3 246.133 78.98C245.733 78.66 245.18 78.5 244.473 78.5H241.593V83.1H244.473ZM257.945 89.64H261.545V77.56H257.945V76.2H263.145V89.64H266.745V91H257.945V89.64ZM280.538 91.24C279.818 91.24 279.164 91.1133 278.578 90.86C278.004 90.6067 277.511 90.2467 277.098 89.78C276.698 89.3 276.391 88.7333 276.178 88.08C275.964 87.4133 275.858 86.6667 275.858 85.84C275.858 85.0267 275.964 84.2867 276.178 83.62C276.391 82.9533 276.698 82.3867 277.098 81.92C277.511 81.44 278.004 81.0733 278.578 80.82C279.164 80.5667 279.818 80.44 280.538 80.44C281.258 80.44 281.904 80.5667 282.478 80.82C283.064 81.0733 283.558 81.44 283.958 81.92C284.371 82.3867 284.684 82.9533 284.898 83.62C285.111 84.2867 285.218 85.0267 285.218 85.84C285.218 86.6667 285.111 87.4133 284.898 88.08C284.684 88.7333 284.371 89.3 283.958 89.78C283.558 90.2467 283.064 90.6067 282.478 90.86C281.904 91.1133 281.258 91.24 280.538 91.24ZM280.538 89.86C281.431 89.86 282.151 89.5933 282.698 89.06C283.244 88.5267 283.518 87.7 283.518 86.58V85.1C283.518 83.98 283.244 83.1533 282.698 82.62C282.151 82.0867 281.431 81.82 280.538 81.82C279.644 81.82 278.924 82.0867 278.378 82.62C277.831 83.1533 277.558 83.98 277.558 85.1V86.58C277.558 87.7 277.831 88.5267 278.378 89.06C278.924 89.5933 279.644 89.86 280.538 89.86ZM303.95 92.18C303.95 93.22 303.516 93.9867 302.65 94.48C301.783 94.9867 300.483 95.24 298.75 95.24C297.083 95.24 295.883 95.02 295.15 94.58C294.43 94.14 294.07 93.5067 294.07 92.68C294.07 92.12 294.216 91.6867 294.51 91.38C294.803 91.0733 295.216 90.8467 295.75 90.7V90.46C295.456 90.3133 295.23 90.1267 295.07 89.9C294.91 89.6733 294.83 89.3867 294.83 89.04C294.83 88.5067 295.003 88.1067 295.35 87.84C295.71 87.5733 296.156 87.3733 296.69 87.24V87.16C296.05 86.88 295.55 86.4667 295.19 85.92C294.843 85.3733 294.67 84.7333 294.67 84C294.67 83.48 294.763 83 294.95 82.56C295.136 82.12 295.403 81.7467 295.75 81.44C296.11 81.12 296.536 80.8733 297.03 80.7C297.523 80.5267 298.07 80.44 298.67 80.44C299.443 80.44 300.123 80.58 300.71 80.86V80.68C300.71 80.28 300.803 79.9467 300.99 79.68C301.176 79.4133 301.496 79.28 301.95 79.28H303.85V80.68H301.53V81.38C301.903 81.7 302.19 82.08 302.39 82.52C302.59 82.96 302.69 83.4533 302.69 84C302.69 84.52 302.59 85 302.39 85.44C302.203 85.88 301.936 86.26 301.59 86.58C301.243 86.8867 300.816 87.1267 300.31 87.3C299.816 87.4733 299.27 87.56 298.67 87.56C298.496 87.56 298.33 87.5533 298.17 87.54C298.01 87.5267 297.85 87.5067 297.69 87.48C297.53 87.5067 297.363 87.5533 297.19 87.62C297.016 87.6733 296.856 87.7533 296.71 87.86C296.563 87.9533 296.443 88.0667 296.35 88.2C296.256 88.3333 296.21 88.4867 296.21 88.66C296.21 88.9667 296.363 89.1733 296.67 89.28C296.976 89.3733 297.376 89.42 297.87 89.42H300.15C301.483 89.42 302.45 89.6733 303.05 90.18C303.65 90.6733 303.95 91.34 303.95 92.18ZM302.45 92.26C302.45 91.8467 302.283 91.5133 301.95 91.26C301.616 91.02 301.036 90.9 300.21 90.9H296.63C295.936 91.18 295.59 91.6467 295.59 92.3C295.59 92.7533 295.77 93.14 296.13 93.46C296.49 93.7933 297.09 93.96 297.93 93.96H299.49C300.423 93.96 301.15 93.8133 301.67 93.52C302.19 93.24 302.45 92.82 302.45 92.26ZM298.67 86.32C299.47 86.32 300.056 86.1333 300.43 85.76C300.816 85.3867 301.01 84.8933 301.01 84.28V83.7C301.01 83.0867 300.816 82.6 300.43 82.24C300.056 81.8667 299.47 81.68 298.67 81.68C297.87 81.68 297.283 81.8667 296.91 82.24C296.536 82.6 296.35 83.0867 296.35 83.7V84.28C296.35 84.8933 296.536 85.3867 296.91 85.76C297.283 86.1333 297.87 86.32 298.67 86.32ZM317.042 91.24C315.962 91.24 315.029 91.06 314.242 90.7C313.469 90.3267 312.809 89.8333 312.262 89.22L313.342 88.28C313.835 88.8 314.375 89.2 314.962 89.48C315.549 89.76 316.255 89.9 317.082 89.9C317.882 89.9 318.535 89.76 319.042 89.48C319.562 89.1867 319.822 88.7333 319.822 88.12C319.822 87.8533 319.769 87.6333 319.662 87.46C319.569 87.2733 319.435 87.1267 319.262 87.02C319.089 86.9133 318.895 86.8333 318.682 86.78C318.469 86.7133 318.242 86.66 318.002 86.62L316.382 86.38C316.022 86.3267 315.629 86.2533 315.202 86.16C314.789 86.0667 314.409 85.92 314.062 85.72C313.715 85.5067 313.422 85.2267 313.182 84.88C312.955 84.5333 312.842 84.08 312.842 83.52C312.842 83 312.942 82.5533 313.142 82.18C313.355 81.7933 313.649 81.4733 314.022 81.22C314.395 80.9533 314.835 80.76 315.342 80.64C315.849 80.5067 316.402 80.44 317.002 80.44C317.935 80.44 318.742 80.5867 319.422 80.88C320.115 81.1733 320.709 81.58 321.202 82.1L320.162 83.08C320.042 82.9333 319.889 82.7867 319.702 82.64C319.529 82.48 319.309 82.34 319.042 82.22C318.789 82.0867 318.489 81.98 318.142 81.9C317.795 81.82 317.395 81.78 316.942 81.78C316.129 81.78 315.502 81.92 315.062 82.2C314.635 82.48 314.422 82.8867 314.422 83.42C314.422 83.6867 314.469 83.9133 314.562 84.1C314.669 84.2733 314.809 84.4133 314.982 84.52C315.155 84.6267 315.349 84.7133 315.562 84.78C315.789 84.8333 316.015 84.88 316.242 84.92L317.862 85.16C318.235 85.2133 318.629 85.2867 319.042 85.38C319.455 85.4733 319.835 85.6267 320.182 85.84C320.529 86.04 320.815 86.3133 321.042 86.66C321.282 87.0067 321.402 87.46 321.402 88.02C321.402 89.0467 321.002 89.84 320.202 90.4C319.415 90.96 318.362 91.24 317.042 91.24Z" fill="#023047"/>
<path d="M130.98 64L112 0H120.16L136.115 56.2063H136.573L152.527 0H160.413L141.433 64H130.98Z" fill="url(#paint0_linear_3_2)"/>
<path d="M207.781 64L202.371 45.7536H179.907L174.497 64H166.52L186.142 0H196.319L215.941 64H207.781ZM191.552 8.16046H190.726L179.907 45.7536H202.371L191.552 8.16046Z" fill="url(#paint1_linear_3_2)"/>
<path d="M262.759 64L257.35 45.7536H234.885L229.476 64H221.499L241.12 0H251.298L270.92 64H262.759ZM246.53 8.16046H245.705L234.885 45.7536H257.35L246.53 8.16046Z" fill="url(#paint2_linear_3_2)"/>
<path d="M315.354 11.6447H314.62L301.142 44.5616L287.663 11.6447H286.93V64H279.87V0H289.772L301.05 28.2407H301.6L312.878 0H322.414V64H315.354V11.6447Z" fill="url(#paint3_linear_3_2)"/>
<rect width="96" height="96" rx="8" fill="url(#paint4_linear_3_2)"/>
<path d="M27.5556 21.3333C24.1191 21.3333 21.3333 24.1191 21.3333 27.5556V32.8889C21.3333 34.3616 20.1394 35.5556 18.6667 35.5556C17.1939 35.5556 16 34.3616 16 32.8889V27.5556C16 21.1736 21.1736 16 27.5556 16H32.8889C34.3616 16 35.5556 17.1939 35.5556 18.6667C35.5556 20.1394 34.3616 21.3333 32.8889 21.3333H27.5556Z" fill="white"/>
<path d="M68.4445 21.3333C71.8809 21.3333 74.6667 24.1191 74.6667 27.5556V32.8889C74.6667 34.3616 75.8606 35.5556 77.3333 35.5556C78.8061 35.5556 80 34.3616 80 32.8889V27.5556C80 21.1736 74.8263 16 68.4445 16H63.1111C61.6384 16 60.4445 17.1939 60.4445 18.6667C60.4445 20.1394 61.6384 21.3333 63.1111 21.3333H68.4445Z" fill="white"/>
<path d="M68.4445 74.6666C71.8809 74.6666 74.6667 71.8809 74.6667 68.4444V63.1111C74.6667 61.6384 75.8606 60.4444 77.3333 60.4444C78.8061 60.4444 80 61.6384 80 63.1111V68.4444C80 74.8263 74.8263 80 68.4445 80H63.1111C61.6384 80 60.4445 78.806 60.4445 77.3333C60.4445 75.8606 61.6384 74.6666 63.1111 74.6666H68.4445Z" fill="white"/>
<path d="M27.5556 74.6666C24.1191 74.6666 21.3333 71.8809 21.3333 68.4444V63.1111C21.3333 61.6384 20.1394 60.4444 18.6667 60.4444C17.1939 60.4444 16 61.6384 16 63.1111V68.4444C16 74.8263 21.1736 80 27.5556 80H32.8889C34.3616 80 35.5556 78.806 35.5556 77.3333C35.5556 75.8606 34.3616 74.6666 32.8889 74.6666H27.5556Z" fill="white"/>
<path d="M52.2586 45.9521L53.9425 46.9146L57.3113 44.9896L52.2586 41.9822V45.9521Z" fill="white"/>
<path d="M62.4848 39.8155L63.6879 37.6504C64.6499 35.9655 61.8838 34.0404 60.5598 33.3196C59.2358 32.5972 56.229 31.0331 55.2665 32.8384L53.5816 35.7259C51.8966 35.365 49.9716 35.1243 48.0471 35.1243C38.061 35.1238 30 40.5385 30 47.1558C30 53.772 38.061 59.1861 48.0471 59.1861C48.0471 59.1861 48.0471 59.1861 48.168 59.1861C48.2883 60.6299 46.6039 63.0361 44.1971 64.2387C53.7029 64.2387 58.0337 57.1402 58.0337 57.1402C62.8457 54.9746 65.9739 51.3651 65.9739 47.1541C66.2145 44.388 64.7708 41.8614 62.4848 39.8155ZM38.3011 50.5245C37.3386 50.5245 36.6167 49.8016 36.6167 48.8391C36.6167 47.8766 37.3386 47.1547 38.3011 47.1547C39.2636 47.1547 39.9855 47.8766 39.9855 48.8391C39.9855 49.8016 39.1444 50.5245 38.3011 50.5245ZM42.7528 50.5245C41.7902 50.5245 41.0684 49.8016 41.0684 48.8391C41.0684 47.8766 41.7902 47.1547 42.7528 47.1547C43.7153 47.1547 44.4372 47.8766 44.4372 48.8391C44.4372 49.8016 43.7153 50.5245 42.7528 50.5245ZM47.2049 50.5245C46.2424 50.5245 45.52 49.8016 45.52 48.8391C45.52 47.8766 46.2424 47.1547 47.2049 47.1547C48.1674 47.1547 48.8893 47.8766 48.8893 48.8391C48.8893 49.8016 48.1674 50.5245 47.2049 50.5245ZM57.9134 45.3505L54.4243 47.2755L51.5362 48.8391V45.5911V41.6208L56.3493 33.3191C56.5894 32.8378 58.2743 33.3191 60.0785 34.2816C61.8827 35.2441 63.0864 36.4467 62.7254 36.9285L57.9134 45.3505Z" fill="white"/>
<defs>
<linearGradient id="paint0_linear_3_2" x1="75.5" y1="91" x2="283.5" y2="11" gradientUnits="userSpaceOnUse">
<stop stop-color="#023047"/>
<stop offset="1" stop-color="#219EBC"/>
</linearGradient>
<linearGradient id="paint1_linear_3_2" x1="75.5" y1="91" x2="283.5" y2="11" gradientUnits="userSpaceOnUse">
<stop stop-color="#023047"/>
<stop offset="1" stop-color="#219EBC"/>
</linearGradient>
<linearGradient id="paint2_linear_3_2" x1="75.5" y1="91" x2="283.5" y2="11" gradientUnits="userSpaceOnUse">
<stop stop-color="#023047"/>
<stop offset="1" stop-color="#219EBC"/>
</linearGradient>
<linearGradient id="paint3_linear_3_2" x1="75.5" y1="91" x2="283.5" y2="11" gradientUnits="userSpaceOnUse">
<stop stop-color="#023047"/>
<stop offset="1" stop-color="#219EBC"/>
</linearGradient>
<linearGradient id="paint4_linear_3_2" x1="-5.32084e-07" y1="96.3257" x2="105.728" y2="82.9461" gradientUnits="userSpaceOnUse">
<stop stop-color="#023047"/>
<stop offset="1" stop-color="#219EBC"/>
</linearGradient>
</defs>
</svg>
